<?xml version="1.0" encoding="utf-8"?>
<!-- Generator: Adobe Illustrator 22.1.0, SVG Export Plug-In . SVG Version: 6.00 Build 0)  -->
<svg version="1.1" id="Layer_1" xmlns="http://www.w3.org/2000/svg" xmlns:xlink="http://www.w3.org/1999/xlink" x="0px" y="0px"
	 viewBox="0 0 308 268" style="enable-background:new 0 0 308 268;" xml:space="preserve">
<style type="text/css">
	.st0{fill:#FFA425;}
	.st1{fill:none;stroke:#40E5ED;stroke-width:20;stroke-linecap:round;stroke-miterlimit:10;}
	.st2{fill:#83C7FF;}
	.st3{fill:none;stroke:#FFA425;stroke-width:20;stroke-linecap:round;stroke-miterlimit:10;}
	.st4{fill:none;stroke:#FFA425;stroke-width:15;stroke-miterlimit:10;}
	.st5{fill:none;stroke:#FFFFFF;stroke-width:20;stroke-linecap:round;stroke-miterlimit:10;}
	.st6{fill:none;stroke:#000000;stroke-width:20;stroke-linecap:round;stroke-miterlimit:10;}
	.st7{fill:#FFFFFF;}
	.st8{fill:#FFA425;stroke:#FF3B4A;stroke-width:10;stroke-miterlimit:10;}
	.st9{fill:#FFB554;}
	.st10{fill:#484848;}
</style>
<rect x="-1170" y="-597" class="st0" width="246" height="252"/>
<image style="overflow:visible;" width="780" height="438" xlink:href="63BF4241.jpg"  transform="matrix(0.759 0 0 0.759 -2396 -1154)">
</image>
<path class="st1" d="M-2051.7-987.3c-2.6,19.6-17.5,35.3-36.6,39.3c-0.1,0-0.2,0-0.2,0c-3,0.6-6.1,0.9-9.2,0.9
	c-23.6,0-43-17.5-46.1-40.3"/>
<g>
	<circle class="st2" cx="-2094" cy="-1000" r="25"/>
</g>
<line class="st1" x1="-2169" y1="-987" x2="-2242" y2="-948"/>
<path class="st3" d="M-2471.9-953.3c-2.6,19.6-17.5,35.3-36.6,39.3c-0.1,0-0.2,0-0.2,0c-3,0.6-6.1,0.9-9.2,0.9
	c-23.6,0-43-17.5-46.1-40.3"/>
<g>
	<circle class="st0" cx="-2518" cy="-967" r="25"/>
</g>
<line class="st3" x1="-2589.3" y1="-953" x2="-2662.3" y2="-914"/>
<path class="st3" d="M-2551.3-758.1c19.6,2.6,35.3,17.5,39.3,36.6c0,0.1,0,0.2,0,0.2c0.6,3,0.9,6.1,0.9,9.2
	c0,23.6-17.5,43-40.3,46.1"/>
<g>
	<circle class="st0" cx="-2565" cy="-712" r="25"/>
</g>
<line class="st3" x1="-2551" y1="-640.8" x2="-2512" y2="-567.8"/>
<text transform="matrix(1 0 0 1 -2424 -436.5859)"><tspan x="0" y="0" style="font-family:'Quicksand-Bold'; font-size:154.525px; letter-spacing:-2;">Po</tspan><tspan x="0" y="185.4" style="font-family:'Quicksand-Bold'; font-size:154.525px; letter-spacing:-2;">wer</tspan></text>
<text transform="matrix(1 0 0 1 -2443.9873 -653.2178)" style="font-family:'Quicksand-Bold'; font-size:154.525px; letter-spacing:-2;">POWER</text>
<g>
	<g>
		<path class="st3" d="M-1117.3-1189.1c19.6,2.6,35.3,17.5,39.3,36.6c0,0.1,0,0.2,0,0.2c0.6,3,0.9,6.1,0.9,9.2
			c0,23.6-17.5,43-40.3,46.1"/>
		<g>
			<circle class="st0" cx="-1131" cy="-1143" r="25"/>
		</g>
		<line class="st3" x1="-1117" y1="-1071.8" x2="-1078" y2="-998.8"/>
	</g>
	<g>
		
			<text transform="matrix(1 0 0 1 -1418.9883 -1071.6426)" class="st0" style="font-family:'Quicksand-Bold'; font-size:176.3781px; letter-spacing:-3;">PO</text>
		
			<text transform="matrix(1 0 0 1 -1415.7646 -989.6152)" class="st0" style="font-family:'Quicksand-Bold'; font-size:101.0443px; letter-spacing:-1;">WER</text>
	</g>
</g>
<g>
	<path class="st4" d="M-1038.3-705h-395.5c-6.2,0-11.3-5-11.3-11.3v-236.5c0-6.2,5-11.3,11.3-11.3h395.5c6.2,0,11.3,5,11.3,11.3
		v236.5C-1027-710-1032-705-1038.3-705z"/>
	<g>
		<path class="st3" d="M-1101.3-928.1c19.6,2.6,35.3,17.5,39.3,36.6c0,0.1,0,0.2,0,0.2c0.6,3,0.9,6.1,0.9,9.2
			c0,23.6-17.5,43-40.3,46.1"/>
		<g>
			<circle class="st0" cx="-1115" cy="-882" r="25"/>
		</g>
		<line class="st3" x1="-1101" y1="-810.8" x2="-1062" y2="-737.8"/>
	</g>
	<g>
		
			<text transform="matrix(1 0 0 1 -1424.9883 -817.6426)" class="st0" style="font-family:'Quicksand-Bold'; font-size:176.3781px; letter-spacing:-3;">PO</text>
		
			<text transform="matrix(1 0 0 1 -1421.7646 -735.6152)" class="st0" style="font-family:'Quicksand-Bold'; font-size:101.0443px; letter-spacing:-1;">WER</text>
	</g>
	<line class="st4" x1="-1171.5" y1="-963.5" x2="-1171.5" y2="-707.5"/>
</g>
<path class="st4" d="M-930.8-342h-503c-6.2,0-11.3-5-11.3-11.3v-236.5c0-6.2,5-11.3,11.3-11.3h503c6.2,0,11.3,5,11.3,11.3v236.5
	C-919.5-347-924.5-342-930.8-342z"/>
<path class="st5" d="M-1080-475.9c-19.6-2.6-35.3-17.5-39.3-36.6c0-0.1,0-0.2,0-0.2c-0.6-3-0.9-6.1-0.9-9.2
	c0-23.6,17.5-43,40.3-46.1"/>
<path class="st6" d="M-1643.7-437.4c2.6-19.6,17.5-35.3,36.6-39.3c0.1,0,0.2,0,0.2,0c3-0.6,6.1-0.9,9.2-0.9
	c23.6,0,43,17.5,46.1,40.3"/>
<path class="st6" d="M-1515.5-432.4c-4.7,34.9-31.1,63-65.2,70c-0.1,0-0.3,0.1-0.4,0.1c-5.3,1.1-10.8,1.6-16.5,1.6
	c-42,0-76.7-31.2-82.1-71.7"/>
<g>
	<circle class="st7" cx="-1075" cy="-520.1" r="25"/>
</g>
<g>
	<circle cx="-1597.6" cy="-426.4" r="25"/>
</g>
<line class="st5" x1="-1077.5" y1="-475.6" x2="-1077.5" y2="-392.9"/>
<line class="st5" x1="-1055.9" y1="-520.1" x2="-973.1" y2="-520.1"/>
<line class="st6" x1="-1597.6" y1="-426.3" x2="-1597.6" y2="-268.4"/>
<path class="st6" d="M-1968.7-437.4c2.6-19.6,17.5-35.3,36.6-39.3c0.1,0,0.2,0,0.2,0c3-0.6,6.1-0.9,9.2-0.9
	c23.6,0,43,17.5,46.1,40.3"/>
<g>
	<circle cx="-1922.6" cy="-426.4" r="25"/>
</g>
<line class="st6" x1="-1922.6" y1="-426.3" x2="-1922.6" y2="-268.4"/>
<g>
	
		<text transform="matrix(1 0 0 1 -1424.9883 -454.6426)" class="st0" style="font-family:'Quicksand-Bold'; font-size:176.3781px; letter-spacing:-3;">PO</text>
	
		<text transform="matrix(1 0 0 1 -1421.7646 -372.6152)" class="st0" style="font-family:'Quicksand-Bold'; font-size:101.0443px; letter-spacing:-1;">WER</text>
</g>
<path class="st6" d="M-1867-488c30.7,30.7,30.7,80.3,0,111c-30.7,30.7-80.3,30.7-111,0c-30.7-30.7-30.7-80.3,0-111"/>
<rect x="-1170" y="553" class="st0" width="246" height="252"/>
<path class="st4" d="M-930.8,808h-503c-6.2,0-11.3-5-11.3-11.3V560.3c0-6.2,5-11.3,11.3-11.3h503c6.2,0,11.3,5,11.3,11.3v236.5
	C-919.5,803-924.5,808-930.8,808z"/>
<path class="st5" d="M-1080,674.1c-19.6-2.6-35.3-17.5-39.3-36.6c0-0.1,0-0.2,0-0.2c-0.6-3-0.9-6.1-0.9-9.2
	c0-23.6,17.5-43,40.3-46.1"/>
<path class="st6" d="M-1643.7,712.6c2.6-19.6,17.5-35.3,36.6-39.3c0.1,0,0.2,0,0.2,0c3-0.6,6.1-0.9,9.2-0.9
	c23.6,0,43,17.5,46.1,40.3"/>
<path class="st6" d="M-1515.5,717.6c-4.7,34.9-31.1,63-65.2,70c-0.1,0-0.3,0.1-0.4,0.1c-5.3,1.1-10.8,1.6-16.5,1.6
	c-42,0-76.7-31.2-82.1-71.7"/>
<g>
	<circle class="st7" cx="-1075" cy="629.9" r="25"/>
</g>
<g>
	<circle cx="-1597.6" cy="723.6" r="25"/>
</g>
<line class="st5" x1="-1077.5" y1="674.4" x2="-1077.5" y2="757.1"/>
<line class="st5" x1="-1055.9" y1="629.9" x2="-973.1" y2="629.9"/>
<line class="st6" x1="-1597.6" y1="723.7" x2="-1597.6" y2="881.6"/>
<g>
	
		<text transform="matrix(1 0 0 1 -1424.9883 695.3574)" class="st0" style="font-family:'Quicksand-Bold'; font-size:176.3781px; letter-spacing:-3;">PO</text>
	
		<text transform="matrix(1 0 0 1 -1421.7646 777.3848)" class="st0" style="font-family:'Quicksand-Bold'; font-size:101.0443px; letter-spacing:-1;">WER</text>
</g>
<g>
	<circle class="st0" cx="-2127.8" cy="777.4" r="165"/>
	<path class="st5" d="M-2174,720.2c2.6-19.6,17.5-35.3,36.6-39.3c0.1,0,0.2,0,0.2,0c3-0.6,6.1-0.9,9.2-0.9c23.6,0,43,17.5,46.1,40.3
		"/>
	<g>
		<circle class="st7" cx="-2127.8" cy="729.2" r="25"/>
	</g>
	<g>
		<circle class="st7" cx="-2069.5" cy="758.5" r="12.5"/>
	</g>
	<g>
		<circle class="st7" cx="-2186.5" cy="758.5" r="12.5"/>
	</g>
	<line class="st5" x1="-2127.8" y1="729.3" x2="-2127.8" y2="887.2"/>
	<path class="st5" d="M-2072.3,667.6c30.7,30.7,30.7,80.3,0,111c-30.7,30.7-80.3,30.7-111,0s-30.7-80.3,0-111"/>
</g>
<polygon class="st8" points="-2105.6,406.3 -1915.6,77.3 -2295.5,77.3 "/>
<g>
	<path class="st5" d="M-2151.8,171.6c2.6-19.6,17.5-35.3,36.6-39.3c0.1,0,0.2,0,0.2,0c3-0.6,6.1-0.9,9.2-0.9
		c23.6,0,43,17.5,46.1,40.3"/>
	<g>
		<circle class="st7" cx="-2105.6" cy="180.6" r="25"/>
	</g>
	<g>
		<circle class="st7" cx="-2047.3" cy="209.9" r="12.5"/>
	</g>
	<g>
		<circle class="st7" cx="-2164.3" cy="209.9" r="12.5"/>
	</g>
	<line class="st5" x1="-2105.6" y1="180.7" x2="-2105.6" y2="338.6"/>
	<path class="st5" d="M-2050.1,119c30.7,30.7,30.7,80.3,0,111c-30.7,30.7-80.3,30.7-111,0s-30.7-80.3,0-111"/>
</g>
<image style="overflow:visible;" width="84" height="99" xlink:href="63BF4243.jpg"  transform="matrix(1 0 0 1 171 525)">
</image>
<image style="overflow:visible;" width="84" height="99" xlink:href="63BF4246.jpg"  transform="matrix(1 0 0 1 -8042 -7751)">
</image>
<image style="overflow:visible;" width="84" height="99" xlink:href="63BF4247.jpg"  transform="matrix(1 0 0 1 -8042 -7751)">
</image>
<image style="overflow:visible;" width="84" height="99" xlink:href="63BF4242.jpg"  transform="matrix(1 0 0 1 -8042 -7751)">
</image>
<image style="overflow:visible;" width="84" height="99" xlink:href="63BF424D.jpg"  transform="matrix(1 0 0 1 -8042 -7751)">
</image>
<image style="overflow:visible;" width="84" height="99" xlink:href="63BF424E.jpg"  transform="matrix(1 0 0 1 -8042 -7751)">
</image>
<image style="overflow:visible;" width="84" height="99" xlink:href="63BF424F.jpg"  transform="matrix(1 0 0 1 -8042 -7751)">
</image>
<g>
	<g>
		<rect x="315" y="479" class="st9" width="90" height="164"/>
		<text transform="matrix(1 0 0 1 343.1406 615.7227)" class="st7" style="font-family:'Quicksand-Bold'; font-size:60px;">F</text>
	</g>
	<g>
		<rect x="424.7" y="431" class="st9" width="90" height="212"/>
		<text transform="matrix(1 0 0 1 450.9797 615.7227)" class="st7" style="font-family:'Quicksand-Bold'; font-size:60px;">a</text>
	</g>
	<g>
		<rect x="534" y="525" class="st9" width="90" height="118"/>
		<text transform="matrix(1 0 0 1 556.9509 615.7227)" class="st7" style="font-family:'Quicksand-Bold'; font-size:60px;">N</text>
	</g>
	<g>
		<path class="st9" d="M382.2,469.3h-43.5c-3.7,0-6.8-3-6.8-6.8V438c0-3.7,3-6.8,6.8-6.8h43.5c3.7,0,6.8,3,6.8,6.8v24.5
			C389,466.2,386,469.3,382.2,469.3z"/>
		<circle class="st7" cx="369.5" cy="450.3" r="9.5"/>
		<rect x="347" y="441" class="st7" width="5" height="19"/>
		<path class="st9" d="M355.9,435h-12.8c-1.2,0-2.1-0.9-2.1-2.1v-3.8c0-1.2,0.9-2.1,2.1-2.1h12.8c1.2,0,2.1,0.9,2.1,2.1v3.8
			C358,434.1,357.1,435,355.9,435z"/>
	</g>
	<g>
		<circle class="st9" cx="456" cy="384" r="9"/>
		<circle class="st9" cx="484" cy="384" r="9"/>
		<path class="st9" d="M493,398c0,12.7-10.3,23-23,23s-23-10.3-23-23"/>
	</g>
	<g>
		<ellipse class="st9" cx="579.5" cy="447" rx="13.5" ry="19"/>
		<path class="st9" d="M580,515h-1c-1.7,0-3-1.3-3-3v-54c0-1.7,1.3-3,3-3h1c1.7,0,3,1.3,3,3v54C583,513.7,581.7,515,580,515z"/>
	</g>
	<g>
		
			<text transform="matrix(1 0 0 1 314.6094 728.415)" class="st9" style="font-family:'Quicksand-Bold'; font-size:102px; letter-spacing:2;">Sights</text>
	</g>
</g>
<rect x="-364" y="423" class="st9" width="90" height="164"/>
<g>
	<path class="st7" d="M-323.9,524.6v10.6h13c1,0,1.9,0.3,2.6,1c0.7,0.7,1,1.5,1,2.5c0,0.9-0.4,1.7-1,2.3c-0.7,0.7-1.6,1-2.6,1h-13
		v14c0,1-0.4,1.9-1.1,2.6c-0.7,0.7-1.6,1-2.6,1c-1.1,0-2-0.3-2.7-1c-0.7-0.7-1-1.6-1-2.6v-34.7c0-1,0.3-1.9,1-2.6
		c0.7-0.7,1.6-1,2.6-1h19.5c1,0,1.9,0.3,2.6,1s1.1,1.5,1.1,2.5c0,0.9-0.4,1.7-1.1,2.3c-0.7,0.7-1.6,1-2.6,1H-323.9z"/>
</g>
<rect x="-254.3" y="375" class="st9" width="90" height="212"/>
<g>
	<path class="st7" d="M-195.6,528c0.7,0.7,1,1.6,1,2.6v25.4c0,1-0.3,1.9-1,2.6c-0.7,0.7-1.5,1-2.6,1s-1.9-0.3-2.5-1s-1-1.5-1-2.6
		c-1,1.2-2.4,2.2-4,3c-1.7,0.8-3.5,1.2-5.4,1.2c-2.8,0-5.3-0.7-7.5-2.1c-2.2-1.4-4-3.4-5.3-5.9c-1.3-2.5-2-5.4-2-8.6
		s0.6-6.1,1.9-8.6s3-4.5,5.3-5.9c2.2-1.4,4.7-2.1,7.4-2.1c1.9,0,3.7,0.4,5.4,1c1.7,0.7,3.1,1.6,4.3,2.7v-0.1c0-1,0.3-1.9,1-2.6
		c0.7-0.7,1.5-1,2.6-1S-196.2,527.4-195.6,528z M-203.9,550.9c1.6-1.9,2.5-4.3,2.5-7.2c0-2.9-0.8-5.3-2.5-7.2
		c-1.6-1.9-3.8-2.9-6.4-2.9c-2.6,0-4.7,1-6.3,2.9c-1.6,1.9-2.5,4.3-2.5,7.2c0,2.9,0.8,5.3,2.4,7.2c1.6,1.9,3.7,2.8,6.3,2.8
		C-207.7,553.7-205.5,552.8-203.9,550.9z"/>
</g>
<rect x="-145" y="469" class="st9" width="90" height="118"/>
<g>
	<path class="st7" d="M-83.3,518.7c0.6,0.6,0.9,1.4,0.9,2.4v35c0,1-0.4,1.9-1,2.6c-0.7,0.7-1.6,1-2.6,1c-0.6,0-1.1-0.1-1.7-0.3
		c-0.5-0.2-0.9-0.4-1.2-0.8l-22-28v25.6c0,1-0.3,1.8-0.9,2.4c-0.6,0.6-1.4,1-2.4,1c-1,0-1.7-0.3-2.3-1c-0.6-0.6-0.9-1.4-0.9-2.4v-35
		c0-1,0.3-1.9,1-2.6c0.7-0.7,1.6-1,2.6-1c0.6,0,1.2,0.1,1.8,0.4c0.6,0.2,1,0.6,1.3,1l21.8,27.8v-25.8c0-1,0.3-1.8,0.9-2.4
		c0.6-0.6,1.4-1,2.4-1S-83.9,518-83.3,518.7z"/>
</g>
<path class="st9" d="M-296.8,413.3h-43.5c-3.7,0-6.8-3-6.8-6.8V382c0-3.7,3-6.8,6.8-6.8h43.5c3.7,0,6.8,3,6.8,6.8v24.5
	C-290,410.2-293,413.3-296.8,413.3z"/>
<circle class="st7" cx="-309.5" cy="394.3" r="9.5"/>
<rect x="-332" y="385" class="st7" width="5" height="19"/>
<path class="st9" d="M-323.1,379h-12.8c-1.2,0-2.1-0.9-2.1-2.1v-3.8c0-1.2,0.9-2.1,2.1-2.1h12.8c1.2,0,2.1,0.9,2.1,2.1v3.8
	C-321,378.1-321.9,379-323.1,379z"/>
<circle class="st9" cx="-223" cy="328" r="9"/>
<circle class="st9" cx="-195" cy="328" r="9"/>
<path class="st9" d="M-186,342c0,12.7-10.3,23-23,23s-23-10.3-23-23"/>
<ellipse class="st9" cx="-99.5" cy="391" rx="13.5" ry="19"/>
<path class="st9" d="M-99,459h-1c-1.7,0-3-1.3-3-3v-54c0-1.7,1.3-3,3-3h1c1.7,0,3,1.3,3,3v54C-96,457.7-97.3,459-99,459z"/>
<g>
	<g>
		<path class="st9" d="M-346.8,671.6c-3.8-1.2-7.4-3.3-10.7-6.2c-1.8-1.6-2.8-3.4-2.8-5.4c0-1.6,0.6-2.9,1.7-4.1
			c1.2-1.2,2.5-1.8,4.2-1.8c1.3,0,2.4,0.4,3.5,1.2c2.7,2.2,5.4,3.9,8,4.9c2.6,1,5.6,1.5,9.2,1.5c3.8,0,7.1-0.8,9.8-2.5
			c2.8-1.7,4.1-3.8,4.1-6.3c0-3.1-1.4-5.5-4.1-7.2c-2.7-1.7-7-3-13-3.9c-14.9-2.2-22.3-9.1-22.3-20.8c0-4.3,1.1-8,3.4-11.2
			c2.2-3.2,5.3-5.6,9.2-7.2c3.9-1.7,8.2-2.5,13-2.5c4.3,0,8.3,0.6,12.1,1.9c3.8,1.3,6.9,3,9.4,5.1c2,1.6,3,3.4,3,5.4
			c0,1.6-0.6,2.9-1.7,4.1c-1.2,1.2-2.5,1.8-4.1,1.8c-1,0-1.9-0.3-2.8-0.9c-1.8-1.4-4.2-2.7-7.4-3.9c-3.2-1.2-6-1.8-8.5-1.8
			c-4.3,0-7.6,0.8-9.9,2.4c-2.3,1.6-3.5,3.7-3.5,6.3c0,2.9,1.2,5.1,3.6,6.6c2.4,1.5,6.2,2.7,11.4,3.7c5.8,1,10.5,2.3,14,3.9
			c3.5,1.6,6.1,3.8,7.9,6.5c1.8,2.8,2.7,6.4,2.7,11c0,4.3-1.2,8-3.6,11.3c-2.4,3.2-5.6,5.7-9.6,7.4c-4,1.7-8.3,2.6-13,2.6
			C-338.7,673.4-343,672.8-346.8,671.6z"/>
		<path class="st9" d="M-294.3,610.1c-1-0.7-1.4-2.1-1.4-4v-1.9c0-1.9,0.5-3.2,1.5-4c1-0.7,2.7-1.1,4.9-1.1c2.4,0,4,0.4,5,1.1
			c1,0.7,1.4,2.1,1.4,4v1.9c0,2-0.5,3.3-1.5,4c-1,0.7-2.7,1.1-5,1.1C-291.7,611.2-293.4,610.8-294.3,610.1z M-284.9,670.6
			c-1.2,1.2-2.6,1.8-4.4,1.8c-1.8,0-3.2-0.6-4.4-1.8c-1.2-1.2-1.7-2.7-1.7-4.4v-42.1c0-1.8,0.6-3.2,1.7-4.4c1.2-1.2,2.6-1.8,4.4-1.8
			c1.8,0,3.2,0.6,4.4,1.8c1.2,1.2,1.7,2.7,1.7,4.4v42.1C-283.2,668-283.8,669.4-284.9,670.6z"/>
		<path class="st9" d="M-218.9,618.6c1.2,1.2,1.7,2.7,1.7,4.5v45.4c0,8.3-2.6,14.4-7.7,18.4c-5.1,4-11.6,6-19.5,6
			c-2,0-4.8-0.3-8.4-1c-3.6-0.7-6.1-1.4-7.6-2c-3.3-1.4-5-3.4-5-5.9c0-0.5,0.1-1,0.3-1.6c0.4-1.5,1.1-2.6,2.1-3.4
			c1-0.8,2.1-1.2,3.2-1.2c0.7,0,1.3,0.1,1.9,0.3c0.3,0.1,2,0.7,5,1.9c3.1,1.2,5.9,1.8,8.4,1.8c5,0,8.8-1,11.3-3
			c2.5-2,3.7-4.8,3.7-8.5v-4.9c-1.5,2.1-3.8,4-6.8,5.7c-3,1.7-6.3,2.5-9.7,2.5c-4.8,0-9.1-1.2-13-3.6c-3.9-2.4-7-5.8-9.2-10
			c-2.2-4.3-3.4-9.1-3.4-14.6c0-5.4,1.1-10.3,3.3-14.6c2.2-4.3,5.2-7.7,9.1-10.1c3.8-2.4,8.1-3.6,12.8-3.6c3.5,0,6.7,0.7,9.7,2.1
			c3,1.4,5.4,3.2,7.2,5.2V623c0-1.8,0.6-3.2,1.7-4.4c1.2-1.2,2.6-1.8,4.4-1.8C-221.6,616.8-220.1,617.4-218.9,618.6z M-233.3,657.4
			c2.9-3.2,4.3-7.3,4.3-12.2c0-4.9-1.4-9-4.3-12.2c-2.9-3.3-6.6-4.9-11.2-4.9c-4.6,0-8.3,1.6-11.1,4.9c-2.9,3.3-4.3,7.3-4.3,12.2
			c0,4.9,1.4,9,4.3,12.2c2.9,3.2,6.6,4.8,11.1,4.8C-239.9,662.2-236.2,660.6-233.3,657.4z"/>
		<path class="st9" d="M-159.2,623c2.6,4.1,3.9,9.8,3.9,17.1v26.1c0,1.8-0.6,3.2-1.7,4.4c-1.2,1.2-2.6,1.8-4.4,1.8
			c-1.8,0-3.2-0.6-4.4-1.8c-1.2-1.2-1.7-2.7-1.7-4.4v-26.1c0-3.7-0.7-6.7-2.2-8.8c-1.5-2.1-4-3.2-7.7-3.2c-3.8,0-6.8,1.1-8.9,3.4
			c-2.1,2.3-3.2,5.2-3.2,8.6v26.1c0,1.8-0.6,3.2-1.7,4.4c-1.2,1.2-2.6,1.8-4.4,1.8c-1.8,0-3.2-0.6-4.4-1.8c-1.2-1.2-1.7-2.7-1.7-4.4
			v-63c0-1.8,0.6-3.2,1.7-4.4c1.2-1.2,2.6-1.8,4.4-1.8c1.8,0,3.2,0.6,4.4,1.8c1.2,1.2,1.7,2.7,1.7,4.4v22.5c1.8-2.4,4.2-4.5,7-6.3
			c2.8-1.7,6-2.6,9.4-2.6C-166.4,616.8-161.8,618.9-159.2,623z"/>
		<path class="st9" d="M-111,662.3c0.8,0.9,1.2,2.1,1.2,3.6c0,1.8-1,3.4-3,4.6c-2,1.3-4.3,1.9-6.8,1.9c-4.2,0-7.8-0.9-10.7-2.7
			c-2.9-1.8-4.3-5.6-4.3-11.5v-28.2h-4.7c-1.6,0-3-0.5-4.1-1.6c-1.1-1.1-1.6-2.4-1.6-4.1c0-1.6,0.5-2.9,1.6-3.9
			c1.1-1.1,2.4-1.6,4.1-1.6h4.7v-6.5c0-1.8,0.6-3.2,1.8-4.4c1.2-1.2,2.7-1.8,4.4-1.8c1.7,0,3.1,0.6,4.3,1.8c1.2,1.2,1.7,2.7,1.7,4.4
			v6.5h7.2c1.6,0,3,0.5,4.1,1.6c1.1,1.1,1.6,2.4,1.6,4.1c0,1.6-0.5,2.9-1.6,3.9c-1.1,1.1-2.4,1.6-4.1,1.6h-7.2v27.6
			c0,1.4,0.4,2.5,1.1,3.1c0.7,0.6,1.8,1,3.1,1c0.5,0,1.3-0.1,2.2-0.4c0.8-0.3,1.6-0.5,2.3-0.5C-112.6,660.9-111.8,661.3-111,662.3z"
			/>
		<path class="st9" d="M-98.1,660.9c0-1.8,0.9-3.3,2.7-4.5c1-0.6,1.9-0.9,3-0.9c1.4,0,2.8,0.6,4.1,1.9c2,2.1,4.2,3.7,6.4,4.7
			c2.2,1,4.9,1.5,8,1.5c5.3-0.2,8-2.2,8-6c0-2-0.9-3.5-2.7-4.5c-1.8-1-4.6-2-8.4-3.1c-3.9-1.1-7.2-2.2-9.6-3.3
			c-2.5-1.1-4.6-2.7-6.4-4.9c-1.8-2.2-2.7-5.2-2.7-8.9c0-3.3,0.9-6.1,2.8-8.5c1.9-2.4,4.3-4.3,7.3-5.6c3-1.3,6.2-2,9.6-2
			c3.5,0,6.9,0.6,10.4,1.9c3.5,1.3,6.2,3.2,8.2,5.7c0.9,1.1,1.3,2.3,1.3,3.7c0,1.6-0.6,2.9-1.9,3.9c-1,0.7-2,1.1-3.3,1.1
			c-1.5,0-2.7-0.5-3.7-1.4c-1.2-1.5-2.8-2.7-4.7-3.6c-1.9-0.9-4.1-1.3-6.6-1.3c-5.2,0-7.8,1.9-7.8,5.6c0,1.5,0.5,2.7,1.4,3.6
			c1,0.9,2.2,1.6,3.6,2.1c1.5,0.5,3.5,1.1,6.2,1.9c3.7,1,6.7,2.1,9.2,3.2c2.4,1.1,4.5,2.8,6.2,5c1.7,2.2,2.5,5.2,2.5,8.9
			c0,3.3-1,6.2-3,8.7c-2,2.5-4.5,4.4-7.6,5.7c-3.1,1.3-6.3,1.9-9.5,1.9c-4.5,0-8.7-0.7-12.5-2.2c-3.9-1.5-7-3.9-9.5-7.2
			C-97.8,663.1-98.1,662.1-98.1,660.9z"/>
	</g>
</g>
<rect y="104" class="st7" width="90" height="164"/>
<rect x="108.7" y="56" class="st7" width="90" height="212"/>
<rect x="218" y="150" class="st7" width="90" height="118"/>
<path class="st7" d="M66.2,94.3H22.8c-3.7,0-6.8-3-6.8-6.8V63c0-3.7,3-6.8,6.8-6.8h43.5c3.7,0,6.8,3,6.8,6.8v24.5
	C73,91.2,70,94.3,66.2,94.3z"/>
<circle class="st10" cx="53.5" cy="75.3" r="9.5"/>
<rect x="31" y="66" class="st10" width="5" height="19"/>
<path class="st7" d="M39.9,60H27.1c-1.2,0-2.1-0.9-2.1-2.1v-3.8c0-1.2,0.9-2.1,2.1-2.1h12.8c1.2,0,2.1,0.9,2.1,2.1v3.8
	C42,59.1,41.1,60,39.9,60z"/>
<circle class="st7" cx="140" cy="9" r="9"/>
<circle class="st7" cx="168" cy="9" r="9"/>
<path class="st7" d="M177,23c0,12.7-10.3,23-23,23s-23-10.3-23-23"/>
<ellipse class="st7" cx="263.5" cy="72" rx="13.5" ry="19"/>
<path class="st7" d="M264,140h-1c-1.7,0-3-1.3-3-3V83c0-1.7,1.3-3,3-3h1c1.7,0,3,1.3,3,3v54C267,138.7,265.7,140,264,140z"/>
</svg>
