<?xml version="1.0" encoding="utf-8"?>
<!-- Generator: Adobe Illustrator 22.1.0, SVG Export Plug-In . SVG Version: 6.00 Build 0)  -->
<svg version="1.1" id="Layer_1" xmlns="http://www.w3.org/2000/svg" xmlns:xlink="http://www.w3.org/1999/xlink" x="0px" y="0px"
	 viewBox="0 0 308 268" style="enable-background:new 0 0 308 268;" xml:space="preserve">
<style type="text/css">
	.st0{fill:#FFA425;}
	.st1{fill:none;stroke:#40E5ED;stroke-width:20;stroke-linecap:round;stroke-miterlimit:10;}
	.st2{fill:#83C7FF;}
	.st3{fill:none;stroke:#FFA425;stroke-width:20;stroke-linecap:round;stroke-miterlimit:10;}
	.st4{fill:none;stroke:#FFA425;stroke-width:15;stroke-miterlimit:10;}
	.st5{fill:none;stroke:#FFFFFF;stroke-width:20;stroke-linecap:round;stroke-miterlimit:10;}
	.st6{fill:none;stroke:#000000;stroke-width:20;stroke-linecap:round;stroke-miterlimit:10;}
	.st7{fill:#FFFFFF;}
	.st8{fill:#FFA425;stroke:#FF3B4A;stroke-width:10;stroke-miterlimit:10;}
	.st9{fill:#FFB554;}
</style>
<rect x="-1170" y="-597" class="st0" width="246" height="252"/>
<image style="overflow:visible;" width="780" height="438" xlink:href="B5D7075D.jpg"  transform="matrix(0.759 0 0 0.759 -2396 -1154)">
</image>
<path class="st1" d="M-2051.7-987.3c-2.6,19.6-17.5,35.3-36.6,39.3c-0.1,0-0.2,0-0.2,0c-3,0.6-6.1,0.9-9.2,0.9
	c-23.6,0-43-17.5-46.1-40.3"/>
<g>
	<circle class="st2" cx="-2094" cy="-1000" r="25"/>
</g>
<line class="st1" x1="-2169" y1="-987" x2="-2242" y2="-948"/>
<path class="st3" d="M-2471.9-953.3c-2.6,19.6-17.5,35.3-36.6,39.3c-0.1,0-0.2,0-0.2,0c-3,0.6-6.1,0.9-9.2,0.9
	c-23.6,0-43-17.5-46.1-40.3"/>
<g>
	<circle class="st0" cx="-2518" cy="-967" r="25"/>
</g>
<line class="st3" x1="-2589.3" y1="-953" x2="-2662.3" y2="-914"/>
<path class="st3" d="M-2551.3-758.1c19.6,2.6,35.3,17.5,39.3,36.6c0,0.1,0,0.2,0,0.2c0.6,3,0.9,6.1,0.9,9.2
	c0,23.6-17.5,43-40.3,46.1"/>
<g>
	<circle class="st0" cx="-2565" cy="-712" r="25"/>
</g>
<line class="st3" x1="-2551" y1="-640.8" x2="-2512" y2="-567.8"/>
<text transform="matrix(1 0 0 1 -2424 -436.5859)"><tspan x="0" y="0" style="font-family:'Quicksand-Bold'; font-size:154.525px; letter-spacing:-2;">Po</tspan><tspan x="0" y="185.4" style="font-family:'Quicksand-Bold'; font-size:154.525px; letter-spacing:-2;">wer</tspan></text>
<text transform="matrix(1 0 0 1 -2443.9873 -653.2178)" style="font-family:'Quicksand-Bold'; font-size:154.525px; letter-spacing:-2;">POWER</text>
<g>
	<g>
		<path class="st3" d="M-1117.3-1189.1c19.6,2.6,35.3,17.5,39.3,36.6c0,0.1,0,0.2,0,0.2c0.6,3,0.9,6.1,0.9,9.2
			c0,23.6-17.5,43-40.3,46.1"/>
		<g>
			<circle class="st0" cx="-1131" cy="-1143" r="25"/>
		</g>
		<line class="st3" x1="-1117" y1="-1071.8" x2="-1078" y2="-998.8"/>
	</g>
	<g>
		
			<text transform="matrix(1 0 0 1 -1418.9883 -1071.6426)" class="st0" style="font-family:'Quicksand-Bold'; font-size:176.3781px; letter-spacing:-3;">PO</text>
		
			<text transform="matrix(1 0 0 1 -1415.7646 -989.6152)" class="st0" style="font-family:'Quicksand-Bold'; font-size:101.0443px; letter-spacing:-1;">WER</text>
	</g>
</g>
<g>
	<path class="st4" d="M-1038.3-705h-395.5c-6.2,0-11.3-5-11.3-11.3v-236.5c0-6.2,5-11.3,11.3-11.3h395.5c6.2,0,11.3,5,11.3,11.3
		v236.5C-1027-710-1032-705-1038.3-705z"/>
	<g>
		<path class="st3" d="M-1101.3-928.1c19.6,2.6,35.3,17.5,39.3,36.6c0,0.1,0,0.2,0,0.2c0.6,3,0.9,6.1,0.9,9.2
			c0,23.6-17.5,43-40.3,46.1"/>
		<g>
			<circle class="st0" cx="-1115" cy="-882" r="25"/>
		</g>
		<line class="st3" x1="-1101" y1="-810.8" x2="-1062" y2="-737.8"/>
	</g>
	<g>
		
			<text transform="matrix(1 0 0 1 -1424.9883 -817.6426)" class="st0" style="font-family:'Quicksand-Bold'; font-size:176.3781px; letter-spacing:-3;">PO</text>
		
			<text transform="matrix(1 0 0 1 -1421.7646 -735.6152)" class="st0" style="font-family:'Quicksand-Bold'; font-size:101.0443px; letter-spacing:-1;">WER</text>
	</g>
	<line class="st4" x1="-1171.5" y1="-963.5" x2="-1171.5" y2="-707.5"/>
</g>
<path class="st4" d="M-930.8-342h-503c-6.2,0-11.3-5-11.3-11.3v-236.5c0-6.2,5-11.3,11.3-11.3h503c6.2,0,11.3,5,11.3,11.3v236.5
	C-919.5-347-924.5-342-930.8-342z"/>
<path class="st5" d="M-1080-475.9c-19.6-2.6-35.3-17.5-39.3-36.6c0-0.1,0-0.2,0-0.2c-0.6-3-0.9-6.1-0.9-9.2
	c0-23.6,17.5-43,40.3-46.1"/>
<path class="st6" d="M-1643.7-437.4c2.6-19.6,17.5-35.3,36.6-39.3c0.1,0,0.2,0,0.2,0c3-0.6,6.1-0.9,9.2-0.9
	c23.6,0,43,17.5,46.1,40.3"/>
<path class="st6" d="M-1515.5-432.4c-4.7,34.9-31.1,63-65.2,70c-0.1,0-0.3,0.1-0.4,0.1c-5.3,1.1-10.8,1.6-16.5,1.6
	c-42,0-76.7-31.2-82.1-71.7"/>
<g>
	<circle class="st7" cx="-1075" cy="-520.1" r="25"/>
</g>
<g>
	<circle cx="-1597.6" cy="-426.4" r="25"/>
</g>
<line class="st5" x1="-1077.5" y1="-475.6" x2="-1077.5" y2="-392.9"/>
<line class="st5" x1="-1055.9" y1="-520.1" x2="-973.1" y2="-520.1"/>
<line class="st6" x1="-1597.6" y1="-426.3" x2="-1597.6" y2="-268.4"/>
<path class="st6" d="M-1968.7-437.4c2.6-19.6,17.5-35.3,36.6-39.3c0.1,0,0.2,0,0.2,0c3-0.6,6.1-0.9,9.2-0.9
	c23.6,0,43,17.5,46.1,40.3"/>
<g>
	<circle cx="-1922.6" cy="-426.4" r="25"/>
</g>
<line class="st6" x1="-1922.6" y1="-426.3" x2="-1922.6" y2="-268.4"/>
<g>
	
		<text transform="matrix(1 0 0 1 -1424.9883 -454.6426)" class="st0" style="font-family:'Quicksand-Bold'; font-size:176.3781px; letter-spacing:-3;">PO</text>
	
		<text transform="matrix(1 0 0 1 -1421.7646 -372.6152)" class="st0" style="font-family:'Quicksand-Bold'; font-size:101.0443px; letter-spacing:-1;">WER</text>
</g>
<path class="st6" d="M-1867-488c30.7,30.7,30.7,80.3,0,111c-30.7,30.7-80.3,30.7-111,0c-30.7-30.7-30.7-80.3,0-111"/>
<rect x="-1170" y="553" class="st0" width="246" height="252"/>
<path class="st4" d="M-930.8,808h-503c-6.2,0-11.3-5-11.3-11.3V560.3c0-6.2,5-11.3,11.3-11.3h503c6.2,0,11.3,5,11.3,11.3v236.5
	C-919.5,803-924.5,808-930.8,808z"/>
<path class="st5" d="M-1080,674.1c-19.6-2.6-35.3-17.5-39.3-36.6c0-0.1,0-0.2,0-0.2c-0.6-3-0.9-6.1-0.9-9.2
	c0-23.6,17.5-43,40.3-46.1"/>
<path class="st6" d="M-1643.7,712.6c2.6-19.6,17.5-35.3,36.6-39.3c0.1,0,0.2,0,0.2,0c3-0.6,6.1-0.9,9.2-0.9
	c23.6,0,43,17.5,46.1,40.3"/>
<path class="st6" d="M-1515.5,717.6c-4.7,34.9-31.1,63-65.2,70c-0.1,0-0.3,0.1-0.4,0.1c-5.3,1.1-10.8,1.6-16.5,1.6
	c-42,0-76.7-31.2-82.1-71.7"/>
<g>
	<circle class="st7" cx="-1075" cy="629.9" r="25"/>
</g>
<g>
	<circle cx="-1597.6" cy="723.6" r="25"/>
</g>
<line class="st5" x1="-1077.5" y1="674.4" x2="-1077.5" y2="757.1"/>
<line class="st5" x1="-1055.9" y1="629.9" x2="-973.1" y2="629.9"/>
<line class="st6" x1="-1597.6" y1="723.7" x2="-1597.6" y2="881.6"/>
<g>
	
		<text transform="matrix(1 0 0 1 -1424.9883 695.3574)" class="st0" style="font-family:'Quicksand-Bold'; font-size:176.3781px; letter-spacing:-3;">PO</text>
	
		<text transform="matrix(1 0 0 1 -1421.7646 777.3848)" class="st0" style="font-family:'Quicksand-Bold'; font-size:101.0443px; letter-spacing:-1;">WER</text>
</g>
<g>
	<circle class="st0" cx="-2127.8" cy="777.4" r="165"/>
	<path class="st5" d="M-2174,720.2c2.6-19.6,17.5-35.3,36.6-39.3c0.1,0,0.2,0,0.2,0c3-0.6,6.1-0.9,9.2-0.9c23.6,0,43,17.5,46.1,40.3
		"/>
	<g>
		<circle class="st7" cx="-2127.8" cy="729.2" r="25"/>
	</g>
	<g>
		<circle class="st7" cx="-2069.5" cy="758.5" r="12.5"/>
	</g>
	<g>
		<circle class="st7" cx="-2186.5" cy="758.5" r="12.5"/>
	</g>
	<line class="st5" x1="-2127.8" y1="729.3" x2="-2127.8" y2="887.2"/>
	<path class="st5" d="M-2072.3,667.6c30.7,30.7,30.7,80.3,0,111c-30.7,30.7-80.3,30.7-111,0s-30.7-80.3,0-111"/>
</g>
<polygon class="st8" points="-2105.6,406.3 -1915.6,77.3 -2295.5,77.3 "/>
<g>
	<path class="st5" d="M-2151.8,171.6c2.6-19.6,17.5-35.3,36.6-39.3c0.1,0,0.2,0,0.2,0c3-0.6,6.1-0.9,9.2-0.9
		c23.6,0,43,17.5,46.1,40.3"/>
	<g>
		<circle class="st7" cx="-2105.6" cy="180.6" r="25"/>
	</g>
	<g>
		<circle class="st7" cx="-2047.3" cy="209.9" r="12.5"/>
	</g>
	<g>
		<circle class="st7" cx="-2164.3" cy="209.9" r="12.5"/>
	</g>
	<line class="st5" x1="-2105.6" y1="180.7" x2="-2105.6" y2="338.6"/>
	<path class="st5" d="M-2050.1,119c30.7,30.7,30.7,80.3,0,111c-30.7,30.7-80.3,30.7-111,0s-30.7-80.3,0-111"/>
</g>
<image style="overflow:visible;" width="84" height="99" xlink:href="B5D7075F.jpg"  transform="matrix(1 0 0 1 171 525)">
</image>
<image style="overflow:visible;" width="84" height="99" xlink:href="B5D7075A.jpg"  transform="matrix(1 0 0 1 -8042 -7751)">
</image>
<image style="overflow:visible;" width="84" height="99" xlink:href="B5D7075B.jpg"  transform="matrix(1 0 0 1 -8042 -7751)">
</image>
<image style="overflow:visible;" width="84" height="99" xlink:href="B5D70765.jpg"  transform="matrix(1 0 0 1 -8042 -7751)">
</image>
<image style="overflow:visible;" width="84" height="99" xlink:href="B5D70767.jpg"  transform="matrix(1 0 0 1 -8042 -7751)">
</image>
<image style="overflow:visible;" width="84" height="99" xlink:href="B5D7076A.jpg"  transform="matrix(1 0 0 1 -8042 -7751)">
</image>
<image style="overflow:visible;" width="84" height="99" xlink:href="B5D7076B.jpg"  transform="matrix(1 0 0 1 -8042 -7751)">
</image>
<g>
	<g>
		<rect x="315" y="479" class="st9" width="90" height="164"/>
		<text transform="matrix(1 0 0 1 343.1406 615.7227)" class="st7" style="font-family:'Quicksand-Bold'; font-size:60px;">F</text>
	</g>
	<g>
		<rect x="424.7" y="431" class="st9" width="90" height="212"/>
		<text transform="matrix(1 0 0 1 450.9797 615.7227)" class="st7" style="font-family:'Quicksand-Bold'; font-size:60px;">a</text>
	</g>
	<g>
		<rect x="534" y="525" class="st9" width="90" height="118"/>
		<text transform="matrix(1 0 0 1 556.9509 615.7227)" class="st7" style="font-family:'Quicksand-Bold'; font-size:60px;">N</text>
	</g>
	<g>
		<path class="st9" d="M382.2,469.3h-43.5c-3.7,0-6.8-3-6.8-6.8V438c0-3.7,3-6.8,6.8-6.8h43.5c3.7,0,6.8,3,6.8,6.8v24.5
			C389,466.2,386,469.3,382.2,469.3z"/>
		<circle class="st7" cx="369.5" cy="450.3" r="9.5"/>
		<rect x="347" y="441" class="st7" width="5" height="19"/>
		<path class="st9" d="M355.9,435h-12.8c-1.2,0-2.1-0.9-2.1-2.1v-3.8c0-1.2,0.9-2.1,2.1-2.1h12.8c1.2,0,2.1,0.9,2.1,2.1v3.8
			C358,434.1,357.1,435,355.9,435z"/>
	</g>
	<g>
		<circle class="st9" cx="456" cy="384" r="9"/>
		<circle class="st9" cx="484" cy="384" r="9"/>
		<path class="st9" d="M493,398c0,12.7-10.3,23-23,23s-23-10.3-23-23"/>
	</g>
	<g>
		<ellipse class="st9" cx="579.5" cy="447" rx="13.5" ry="19"/>
		<path class="st9" d="M580,515h-1c-1.7,0-3-1.3-3-3v-54c0-1.7,1.3-3,3-3h1c1.7,0,3,1.3,3,3v54C583,513.7,581.7,515,580,515z"/>
	</g>
	<g>
		
			<text transform="matrix(1 0 0 1 314.6094 728.415)" class="st9" style="font-family:'Quicksand-Bold'; font-size:102px; letter-spacing:2;">Sights</text>
	</g>
</g>
<g>
	<g>
		<rect x="-364" y="423" class="st9" width="90" height="164"/>
		<text transform="matrix(1 0 0 1 -335.8594 559.7227)" class="st7" style="font-family:'Quicksand-Bold'; font-size:60px;">F</text>
	</g>
	<g>
		<rect x="-254.3" y="375" class="st9" width="90" height="212"/>
		<text transform="matrix(1 0 0 1 -228.0203 559.7227)" class="st7" style="font-family:'Quicksand-Bold'; font-size:60px;">a</text>
	</g>
	<g>
		<rect x="-145" y="469" class="st9" width="90" height="118"/>
		<text transform="matrix(1 0 0 1 -122.0491 559.7227)" class="st7" style="font-family:'Quicksand-Bold'; font-size:60px;">N</text>
	</g>
	<g>
		<path class="st9" d="M-296.8,413.3h-43.5c-3.7,0-6.8-3-6.8-6.8V382c0-3.7,3-6.8,6.8-6.8h43.5c3.7,0,6.8,3,6.8,6.8v24.5
			C-290,410.2-293,413.3-296.8,413.3z"/>
		<circle class="st7" cx="-309.5" cy="394.3" r="9.5"/>
		<rect x="-332" y="385" class="st7" width="5" height="19"/>
		<path class="st9" d="M-323.1,379h-12.8c-1.2,0-2.1-0.9-2.1-2.1v-3.8c0-1.2,0.9-2.1,2.1-2.1h12.8c1.2,0,2.1,0.9,2.1,2.1v3.8
			C-321,378.1-321.9,379-323.1,379z"/>
	</g>
	<g>
		<circle class="st9" cx="-223" cy="328" r="9"/>
		<circle class="st9" cx="-195" cy="328" r="9"/>
		<path class="st9" d="M-186,342c0,12.7-10.3,23-23,23s-23-10.3-23-23"/>
	</g>
	<g>
		<ellipse class="st9" cx="-99.5" cy="391" rx="13.5" ry="19"/>
		<path class="st9" d="M-99,459h-1c-1.7,0-3-1.3-3-3v-54c0-1.7,1.3-3,3-3h1c1.7,0,3,1.3,3,3v54C-96,457.7-97.3,459-99,459z"/>
	</g>
	<g>
		
			<text transform="matrix(1 0 0 1 -364.3906 672.415)" class="st9" style="font-family:'Quicksand-Bold'; font-size:102px; letter-spacing:2;">Sights</text>
	</g>
</g>
<g>
	<rect y="104" class="st9" width="90" height="164"/>
	<rect x="108.7" y="56" class="st9" width="90" height="212"/>
	<rect x="218" y="150" class="st9" width="90" height="118"/>
	<path class="st9" d="M66.2,94.3H22.8c-3.7,0-6.8-3-6.8-6.8V63c0-3.7,3-6.8,6.8-6.8h43.5c3.7,0,6.8,3,6.8,6.8v24.5
		C73,91.2,70,94.3,66.2,94.3z"/>
	<circle class="st7" cx="53.5" cy="75.3" r="9.5"/>
	<rect x="31" y="66" class="st7" width="5" height="19"/>
	<path class="st9" d="M39.9,60H27.1c-1.2,0-2.1-0.9-2.1-2.1v-3.8c0-1.2,0.9-2.1,2.1-2.1h12.8c1.2,0,2.1,0.9,2.1,2.1v3.8
		C42,59.1,41.1,60,39.9,60z"/>
	<circle class="st9" cx="140" cy="9" r="9"/>
	<circle class="st9" cx="168" cy="9" r="9"/>
	<path class="st9" d="M177,23c0,12.7-10.3,23-23,23s-23-10.3-23-23"/>
	<ellipse class="st9" cx="263.5" cy="72" rx="13.5" ry="19"/>
	<path class="st9" d="M264,140h-1c-1.7,0-3-1.3-3-3V83c0-1.7,1.3-3,3-3h1c1.7,0,3,1.3,3,3v54C267,138.7,265.7,140,264,140z"/>
</g>
</svg>
