<?xml version="1.0" encoding="utf-8"?>
<!-- Generator: Adobe Illustrator 22.1.0, SVG Export Plug-In . SVG Version: 6.00 Build 0)  -->
<svg version="1.1" id="Layer_1" xmlns="http://www.w3.org/2000/svg" xmlns:xlink="http://www.w3.org/1999/xlink" x="0px" y="0px"
	 viewBox="0 0 315.1 384.3" style="enable-background:new 0 0 315.1 384.3;" xml:space="preserve">
<style type="text/css">
	.st0{fill:#FFA425;}
	.st1{fill:none;stroke:#40E5ED;stroke-width:20;stroke-linecap:round;stroke-miterlimit:10;}
	.st2{fill:#83C7FF;}
	.st3{fill:none;stroke:#FFA425;stroke-width:20;stroke-linecap:round;stroke-miterlimit:10;}
	.st4{fill:none;stroke:#FFA425;stroke-width:15;stroke-miterlimit:10;}
	.st5{fill:none;stroke:#FFFFFF;stroke-width:20;stroke-linecap:round;stroke-miterlimit:10;}
	.st6{fill:none;stroke:#000000;stroke-width:20;stroke-linecap:round;stroke-miterlimit:10;}
	.st7{fill:#FFFFFF;}
	.st8{fill:#FFA425;stroke:#FF3B4A;stroke-width:10;stroke-miterlimit:10;}
	.st9{fill:#FFB554;}
</style>
<rect x="-805.6" y="-916" class="st0" width="246" height="252"/>
<image style="overflow:visible;" width="780" height="438" xlink:href="9A60445.jpg"  transform="matrix(0.759 0 0 0.759 -2031.6094 -1473)">
</image>
<path class="st1" d="M-1687.3-1306.3c-2.6,19.6-17.5,35.3-36.6,39.3c-0.1,0-0.2,0-0.2,0c-3,0.6-6.1,0.9-9.2,0.9
	c-23.6,0-43-17.5-46.1-40.3"/>
<g>
	<circle class="st2" cx="-1729.6" cy="-1319" r="25"/>
</g>
<line class="st1" x1="-1804.6" y1="-1306" x2="-1877.6" y2="-1267"/>
<path class="st3" d="M-2107.5-1272.3c-2.6,19.6-17.5,35.3-36.6,39.3c-0.1,0-0.2,0-0.2,0c-3,0.6-6.1,0.9-9.2,0.9
	c-23.6,0-43-17.5-46.1-40.3"/>
<g>
	<circle class="st0" cx="-2153.6" cy="-1286" r="25"/>
</g>
<line class="st3" x1="-2224.9" y1="-1272" x2="-2297.9" y2="-1233"/>
<path class="st3" d="M-2186.9-1077.1c19.6,2.6,35.3,17.5,39.3,36.6c0,0.1,0,0.2,0,0.2c0.6,3,0.9,6.1,0.9,9.2
	c0,23.6-17.5,43-40.3,46.1"/>
<g>
	<circle class="st0" cx="-2200.6" cy="-1031" r="25"/>
</g>
<line class="st3" x1="-2186.6" y1="-959.8" x2="-2147.6" y2="-886.8"/>
<text transform="matrix(1 0 0 1 -2059.6094 -755.5859)"><tspan x="0" y="0" style="font-family:'Quicksand-Bold'; font-size:154.525px; letter-spacing:-2;">Po</tspan><tspan x="0" y="185.4" style="font-family:'Quicksand-Bold'; font-size:154.525px; letter-spacing:-2;">wer</tspan></text>
<text transform="matrix(1 0 0 1 -2079.5967 -972.2178)" style="font-family:'Quicksand-Bold'; font-size:154.525px; letter-spacing:-2;">POWER</text>
<g>
	<g>
		<path class="st3" d="M-752.9-1508.1c19.6,2.6,35.3,17.5,39.3,36.6c0,0.1,0,0.2,0,0.2c0.6,3,0.9,6.1,0.9,9.2
			c0,23.6-17.5,43-40.3,46.1"/>
		<g>
			<circle class="st0" cx="-766.6" cy="-1462" r="25"/>
		</g>
		<line class="st3" x1="-752.6" y1="-1390.8" x2="-713.6" y2="-1317.8"/>
	</g>
	<g>
		
			<text transform="matrix(1 0 0 1 -1054.5977 -1390.6426)" class="st0" style="font-family:'Quicksand-Bold'; font-size:176.3781px; letter-spacing:-3;">PO</text>
		
			<text transform="matrix(1 0 0 1 -1051.374 -1308.6152)" class="st0" style="font-family:'Quicksand-Bold'; font-size:101.0443px; letter-spacing:-1;">WER</text>
	</g>
</g>
<g>
	<path class="st4" d="M-673.9-1024h-395.5c-6.2,0-11.3-5-11.3-11.3v-236.5c0-6.2,5-11.3,11.3-11.3h395.5c6.2,0,11.3,5,11.3,11.3
		v236.5C-662.6-1029-667.7-1024-673.9-1024z"/>
	<g>
		<path class="st3" d="M-736.9-1247.1c19.6,2.6,35.3,17.5,39.3,36.6c0,0.1,0,0.2,0,0.2c0.6,3,0.9,6.1,0.9,9.2
			c0,23.6-17.5,43-40.3,46.1"/>
		<g>
			<circle class="st0" cx="-750.6" cy="-1201" r="25"/>
		</g>
		<line class="st3" x1="-736.6" y1="-1129.8" x2="-697.6" y2="-1056.8"/>
	</g>
	<g>
		
			<text transform="matrix(1 0 0 1 -1060.5977 -1136.6426)" class="st0" style="font-family:'Quicksand-Bold'; font-size:176.3781px; letter-spacing:-3;">PO</text>
		
			<text transform="matrix(1 0 0 1 -1057.374 -1054.6152)" class="st0" style="font-family:'Quicksand-Bold'; font-size:101.0443px; letter-spacing:-1;">WER</text>
	</g>
	<line class="st4" x1="-807.1" y1="-1282.5" x2="-807.1" y2="-1026.5"/>
</g>
<path class="st4" d="M-566.4-661h-503c-6.2,0-11.3-5-11.3-11.3v-236.5c0-6.2,5-11.3,11.3-11.3h503c6.2,0,11.3,5,11.3,11.3v236.5
	C-555.1-666-560.2-661-566.4-661z"/>
<path class="st5" d="M-715.6-794.9c-19.6-2.6-35.3-17.5-39.3-36.6c0-0.1,0-0.2,0-0.2c-0.6-3-0.9-6.1-0.9-9.2
	c0-23.6,17.5-43,40.3-46.1"/>
<path class="st6" d="M-1279.3-756.4c2.6-19.6,17.5-35.3,36.6-39.3c0.1,0,0.2,0,0.2,0c3-0.6,6.1-0.9,9.2-0.9
	c23.6,0,43,17.5,46.1,40.3"/>
<path class="st6" d="M-1151.1-751.4c-4.7,34.9-31.1,63-65.2,70c-0.1,0-0.3,0.1-0.4,0.1c-5.3,1.1-10.8,1.6-16.5,1.6
	c-42,0-76.7-31.2-82.1-71.7"/>
<g>
	<circle class="st7" cx="-710.6" cy="-839.1" r="25"/>
</g>
<g>
	<circle cx="-1233.2" cy="-745.4" r="25"/>
</g>
<line class="st5" x1="-713.1" y1="-794.6" x2="-713.1" y2="-711.9"/>
<line class="st5" x1="-691.5" y1="-839.1" x2="-608.7" y2="-839.1"/>
<line class="st6" x1="-1233.2" y1="-745.3" x2="-1233.2" y2="-587.4"/>
<path class="st6" d="M-1604.3-756.4c2.6-19.6,17.5-35.3,36.6-39.3c0.1,0,0.2,0,0.2,0c3-0.6,6.1-0.9,9.2-0.9
	c23.6,0,43,17.5,46.1,40.3"/>
<g>
	<circle cx="-1558.2" cy="-745.4" r="25"/>
</g>
<line class="st6" x1="-1558.2" y1="-745.3" x2="-1558.2" y2="-587.4"/>
<g>
	
		<text transform="matrix(1 0 0 1 -1060.5977 -773.6426)" class="st0" style="font-family:'Quicksand-Bold'; font-size:176.3781px; letter-spacing:-3;">PO</text>
	
		<text transform="matrix(1 0 0 1 -1057.374 -691.6152)" class="st0" style="font-family:'Quicksand-Bold'; font-size:101.0443px; letter-spacing:-1;">WER</text>
</g>
<path class="st6" d="M-1502.6-807c30.7,30.7,30.7,80.3,0,111c-30.7,30.7-80.3,30.7-111,0c-30.7-30.7-30.7-80.3,0-111"/>
<rect x="-805.6" y="234" class="st0" width="246" height="252"/>
<path class="st4" d="M-566.4,489h-503c-6.2,0-11.3-5-11.3-11.3V241.3c0-6.2,5-11.3,11.3-11.3h503c6.2,0,11.3,5,11.3,11.3v236.5
	C-555.1,484-560.2,489-566.4,489z"/>
<path class="st5" d="M-715.6,355.1c-19.6-2.6-35.3-17.5-39.3-36.6c0-0.1,0-0.2,0-0.2c-0.6-3-0.9-6.1-0.9-9.2
	c0-23.6,17.5-43,40.3-46.1"/>
<path class="st6" d="M-1279.3,393.6c2.6-19.6,17.5-35.3,36.6-39.3c0.1,0,0.2,0,0.2,0c3-0.6,6.1-0.9,9.2-0.9
	c23.6,0,43,17.5,46.1,40.3"/>
<path class="st6" d="M-1151.1,398.6c-4.7,34.9-31.1,63-65.2,70c-0.1,0-0.3,0.1-0.4,0.1c-5.3,1.1-10.8,1.6-16.5,1.6
	c-42,0-76.7-31.2-82.1-71.7"/>
<g>
	<circle class="st7" cx="-710.6" cy="310.9" r="25"/>
</g>
<g>
	<circle cx="-1233.2" cy="404.6" r="25"/>
</g>
<line class="st5" x1="-713.1" y1="355.4" x2="-713.1" y2="438.1"/>
<line class="st5" x1="-691.5" y1="310.9" x2="-608.7" y2="310.9"/>
<line class="st6" x1="-1233.2" y1="404.7" x2="-1233.2" y2="562.6"/>
<g>
	
		<text transform="matrix(1 0 0 1 -1060.5977 376.3574)" class="st0" style="font-family:'Quicksand-Bold'; font-size:176.3781px; letter-spacing:-3;">PO</text>
	
		<text transform="matrix(1 0 0 1 -1057.374 458.3848)" class="st0" style="font-family:'Quicksand-Bold'; font-size:101.0443px; letter-spacing:-1;">WER</text>
</g>
<g>
	<circle class="st0" cx="-1763.4" cy="458.4" r="165"/>
	<path class="st5" d="M-1809.6,401.2c2.6-19.6,17.5-35.3,36.6-39.3c0.1,0,0.2,0,0.2,0c3-0.6,6.1-0.9,9.2-0.9
		c23.6,0,43,17.5,46.1,40.3"/>
	<g>
		<circle class="st7" cx="-1763.4" cy="410.2" r="25"/>
	</g>
	<g>
		<circle class="st7" cx="-1705.1" cy="439.5" r="12.5"/>
	</g>
	<g>
		<circle class="st7" cx="-1822.1" cy="439.5" r="12.5"/>
	</g>
	<line class="st5" x1="-1763.4" y1="410.3" x2="-1763.4" y2="568.2"/>
	<path class="st5" d="M-1707.9,348.6c30.7,30.7,30.7,80.3,0,111c-30.7,30.7-80.3,30.7-111,0c-30.7-30.7-30.7-80.3,0-111"/>
</g>
<polygon class="st8" points="-1741.2,87.3 -1551.2,-241.7 -1931.1,-241.7 "/>
<g>
	<path class="st5" d="M-1787.4-147.4c2.6-19.6,17.5-35.3,36.6-39.3c0.1,0,0.2,0,0.2,0c3-0.6,6.1-0.9,9.2-0.9
		c23.6,0,43,17.5,46.1,40.3"/>
	<g>
		<circle class="st7" cx="-1741.2" cy="-138.4" r="25"/>
	</g>
	<g>
		<circle class="st7" cx="-1682.9" cy="-109.1" r="12.5"/>
	</g>
	<g>
		<circle class="st7" cx="-1799.9" cy="-109.1" r="12.5"/>
	</g>
	<line class="st5" x1="-1741.2" y1="-138.3" x2="-1741.2" y2="19.6"/>
	<path class="st5" d="M-1685.7-200c30.7,30.7,30.7,80.3,0,111c-30.7,30.7-80.3,30.7-111,0c-30.7-30.7-30.7-80.3,0-111"/>
</g>
<image style="overflow:visible;" width="84" height="99" xlink:href="9A60446.jpg"  transform="matrix(1 0 0 1 535.3906 206)">
</image>
<image style="overflow:visible;" width="84" height="99" xlink:href="9A6044B.jpg"  transform="matrix(1 0 0 1 -7677.6094 -8070)">
</image>
<image style="overflow:visible;" width="84" height="99" xlink:href="9A6044C.jpg"  transform="matrix(1 0 0 1 -7677.6094 -8070)">
</image>
<image style="overflow:visible;" width="84" height="99" xlink:href="9A6044D.jpg"  transform="matrix(1 0 0 1 -7677.6094 -8070)">
</image>
<image style="overflow:visible;" width="84" height="99" xlink:href="9A6044A.jpg"  transform="matrix(1 0 0 1 -7677.6094 -8070)">
</image>
<image style="overflow:visible;" width="84" height="99" xlink:href="9A60449.jpg"  transform="matrix(1 0 0 1 -7677.6094 -8070)">
</image>
<image style="overflow:visible;" width="84" height="99" xlink:href="9A60458.jpg"  transform="matrix(1 0 0 1 -7677.6094 -8070)">
</image>
<g>
	<g>
		<rect x="679.4" y="160" class="st9" width="90" height="164"/>
		<text transform="matrix(1 0 0 1 707.5312 296.7227)" class="st7" style="font-family:'Quicksand-Bold'; font-size:60px;">F</text>
	</g>
	<g>
		<rect x="789.1" y="112" class="st9" width="90" height="212"/>
		<text transform="matrix(1 0 0 1 815.3704 296.7227)" class="st7" style="font-family:'Quicksand-Bold'; font-size:60px;">a</text>
	</g>
	<g>
		<rect x="898.4" y="206" class="st9" width="90" height="118"/>
		<text transform="matrix(1 0 0 1 921.3416 296.7227)" class="st7" style="font-family:'Quicksand-Bold'; font-size:60px;">N</text>
	</g>
	<g>
		<path class="st9" d="M746.6,150.3h-43.5c-3.7,0-6.8-3-6.8-6.8V119c0-3.7,3-6.8,6.8-6.8h43.5c3.7,0,6.8,3,6.8,6.8v24.5
			C753.4,147.2,750.4,150.3,746.6,150.3z"/>
		<circle class="st7" cx="733.9" cy="131.3" r="9.5"/>
		<rect x="711.4" y="122" class="st7" width="5" height="19"/>
		<path class="st9" d="M720.3,116h-12.8c-1.2,0-2.1-0.9-2.1-2.1v-3.8c0-1.2,0.9-2.1,2.1-2.1h12.8c1.2,0,2.1,0.9,2.1,2.1v3.8
			C722.4,115.1,721.5,116,720.3,116z"/>
	</g>
	<g>
		<circle class="st9" cx="820.4" cy="65" r="9"/>
		<circle class="st9" cx="848.4" cy="65" r="9"/>
		<path class="st9" d="M857.4,79c0,12.7-10.3,23-23,23s-23-10.3-23-23"/>
	</g>
	<g>
		<ellipse class="st9" cx="943.9" cy="128" rx="13.5" ry="19"/>
		<path class="st9" d="M944.4,196h-1c-1.7,0-3-1.3-3-3v-54c0-1.7,1.3-3,3-3h1c1.7,0,3,1.3,3,3v54C947.4,194.7,946,196,944.4,196z"/>
	</g>
	<g>
		
			<text transform="matrix(1 0 0 1 679 409.415)" class="st9" style="font-family:'Quicksand-Bold'; font-size:102px; letter-spacing:2;">Sights</text>
	</g>
</g>
<rect x="0.4" y="104" class="st9" width="90" height="164"/>
<g>
	<path class="st7" d="M40.5,205.6v10.6h13c1,0,1.9,0.3,2.6,1c0.7,0.7,1,1.5,1,2.5c0,0.9-0.4,1.7-1,2.3c-0.7,0.7-1.6,1-2.6,1h-13v14
		c0,1-0.4,1.9-1.1,2.6c-0.7,0.7-1.6,1-2.6,1c-1.1,0-2-0.3-2.7-1c-0.7-0.7-1-1.6-1-2.6v-34.7c0-1,0.3-1.9,1-2.6c0.7-0.7,1.6-1,2.6-1
		h19.5c1,0,1.9,0.3,2.6,1s1.1,1.5,1.1,2.5c0,0.9-0.4,1.7-1.1,2.3c-0.7,0.7-1.6,1-2.6,1H40.5z"/>
</g>
<rect x="110.1" y="56" class="st9" width="90" height="212"/>
<g>
	<path class="st7" d="M168.8,209c0.7,0.7,1,1.6,1,2.6v25.4c0,1-0.3,1.9-1,2.6c-0.7,0.7-1.5,1-2.6,1s-1.9-0.3-2.5-1s-1-1.5-1-2.6
		c-1,1.2-2.4,2.2-4,3c-1.7,0.8-3.5,1.2-5.4,1.2c-2.8,0-5.3-0.7-7.5-2.1c-2.2-1.4-4-3.4-5.3-5.9c-1.3-2.5-2-5.4-2-8.6
		s0.6-6.1,1.9-8.6s3-4.5,5.3-5.9c2.2-1.4,4.7-2.1,7.4-2.1c1.9,0,3.7,0.4,5.4,1c1.7,0.7,3.1,1.6,4.3,2.7v-0.1c0-1,0.3-1.9,1-2.6
		c0.7-0.7,1.5-1,2.6-1S168.1,208.4,168.8,209z M160.5,231.9c1.6-1.9,2.5-4.3,2.5-7.2c0-2.9-0.8-5.3-2.5-7.2
		c-1.6-1.9-3.8-2.9-6.4-2.9c-2.6,0-4.7,1-6.3,2.9c-1.6,1.9-2.5,4.3-2.5,7.2c0,2.9,0.8,5.3,2.4,7.2c1.6,1.9,3.7,2.8,6.3,2.8
		C156.7,234.7,158.8,233.8,160.5,231.9z"/>
</g>
<rect x="219.4" y="150" class="st9" width="90" height="118"/>
<g>
	<path class="st7" d="M281,199.7c0.6,0.6,0.9,1.4,0.9,2.4v35c0,1-0.4,1.9-1,2.6c-0.7,0.7-1.6,1-2.6,1c-0.6,0-1.1-0.1-1.7-0.3
		c-0.5-0.2-0.9-0.4-1.2-0.8l-22-28v25.6c0,1-0.3,1.8-0.9,2.4c-0.6,0.6-1.4,1-2.4,1c-1,0-1.7-0.3-2.3-1c-0.6-0.6-0.9-1.4-0.9-2.4v-35
		c0-1,0.3-1.9,1-2.6c0.7-0.7,1.6-1,2.6-1c0.6,0,1.2,0.1,1.8,0.4c0.6,0.2,1,0.6,1.3,1l21.8,27.8v-25.8c0-1,0.3-1.8,0.9-2.4
		c0.6-0.6,1.4-1,2.4-1S280.4,199,281,199.7z"/>
</g>
<path class="st9" d="M67.6,94.3H24.2c-3.7,0-6.8-3-6.8-6.8V63c0-3.7,3-6.8,6.8-6.8h43.5c3.7,0,6.8,3,6.8,6.8v24.5
	C74.4,91.2,71.4,94.3,67.6,94.3z"/>
<circle class="st7" cx="54.9" cy="75.3" r="9.5"/>
<rect x="32.4" y="66" class="st7" width="5" height="19"/>
<path class="st9" d="M41.3,60H28.5c-1.2,0-2.1-0.9-2.1-2.1v-3.8c0-1.2,0.9-2.1,2.1-2.1h12.8c1.2,0,2.1,0.9,2.1,2.1v3.8
	C43.4,59.1,42.5,60,41.3,60z"/>
<circle class="st9" cx="141.4" cy="9" r="9"/>
<circle class="st9" cx="169.4" cy="9" r="9"/>
<path class="st9" d="M178.4,23c0,12.7-10.3,23-23,23s-23-10.3-23-23"/>
<ellipse class="st9" cx="264.9" cy="72" rx="13.5" ry="19"/>
<path class="st9" d="M265.4,140h-1c-1.7,0-3-1.3-3-3V83c0-1.7,1.3-3,3-3h1c1.7,0,3,1.3,3,3v54C268.4,138.7,267,140,265.4,140z"/>
<g>
	<g>
		<path class="st9" d="M17.5,352.6c-3.8-1.2-7.4-3.3-10.7-6.2c-1.8-1.6-2.8-3.4-2.8-5.4c0-1.6,0.6-2.9,1.7-4.1
			c1.2-1.2,2.5-1.8,4.2-1.8c1.3,0,2.4,0.4,3.5,1.2c2.7,2.2,5.4,3.9,8,4.9c2.6,1,5.6,1.5,9.2,1.5c3.8,0,7.1-0.8,9.8-2.5
			c2.8-1.7,4.1-3.8,4.1-6.3c0-3.1-1.4-5.5-4.1-7.2c-2.7-1.7-7-3-13-3.9c-14.9-2.2-22.3-9.1-22.3-20.8c0-4.3,1.1-8,3.4-11.2
			c2.2-3.2,5.3-5.6,9.2-7.2c3.9-1.7,8.2-2.5,13-2.5c4.3,0,8.3,0.6,12.1,1.9c3.8,1.3,6.9,3,9.4,5.1c2,1.6,3,3.4,3,5.4
			c0,1.6-0.6,2.9-1.7,4.1c-1.2,1.2-2.5,1.8-4.1,1.8c-1,0-1.9-0.3-2.8-0.9c-1.8-1.4-4.2-2.7-7.4-3.9c-3.2-1.2-6-1.8-8.5-1.8
			c-4.3,0-7.6,0.8-9.9,2.4c-2.3,1.6-3.5,3.7-3.5,6.3c0,2.9,1.2,5.1,3.6,6.6c2.4,1.5,6.2,2.7,11.4,3.7c5.8,1,10.5,2.3,14,3.9
			c3.5,1.6,6.1,3.8,7.9,6.5c1.8,2.8,2.7,6.4,2.7,11c0,4.3-1.2,8-3.6,11.3c-2.4,3.2-5.6,5.7-9.6,7.4c-4,1.7-8.3,2.6-13,2.6
			C25.7,354.4,21.4,353.8,17.5,352.6z"/>
		<path class="st9" d="M70.1,291.1c-1-0.7-1.4-2.1-1.4-4v-1.9c0-1.9,0.5-3.2,1.5-4c1-0.7,2.7-1.1,4.9-1.1c2.4,0,4,0.4,5,1.1
			c1,0.7,1.4,2.1,1.4,4v1.9c0,2-0.5,3.3-1.5,4c-1,0.7-2.7,1.1-5,1.1C72.7,292.2,71,291.8,70.1,291.1z M79.5,351.6
			c-1.2,1.2-2.6,1.8-4.4,1.8c-1.8,0-3.2-0.6-4.4-1.8c-1.2-1.2-1.7-2.7-1.7-4.4v-42.1c0-1.8,0.6-3.2,1.7-4.4c1.2-1.2,2.6-1.8,4.4-1.8
			c1.8,0,3.2,0.6,4.4,1.8c1.2,1.2,1.7,2.7,1.7,4.4v42.1C81.2,349,80.6,350.4,79.5,351.6z"/>
		<path class="st9" d="M145.5,299.6c1.2,1.2,1.7,2.7,1.7,4.5v45.4c0,8.3-2.6,14.4-7.7,18.4c-5.1,4-11.6,6-19.5,6c-2,0-4.8-0.3-8.4-1
			c-3.6-0.7-6.1-1.4-7.6-2c-3.3-1.4-5-3.4-5-5.9c0-0.5,0.1-1,0.3-1.6c0.4-1.5,1.1-2.6,2.1-3.4c1-0.8,2.1-1.2,3.2-1.2
			c0.7,0,1.3,0.1,1.9,0.3c0.3,0.1,2,0.7,5,1.9c3.1,1.2,5.9,1.8,8.4,1.8c5,0,8.8-1,11.3-3c2.5-2,3.7-4.8,3.7-8.5v-4.9
			c-1.5,2.1-3.8,4-6.8,5.7c-3,1.7-6.3,2.5-9.7,2.5c-4.8,0-9.1-1.2-13-3.6c-3.9-2.4-7-5.8-9.2-10c-2.2-4.3-3.4-9.1-3.4-14.6
			c0-5.4,1.1-10.3,3.3-14.6c2.2-4.3,5.2-7.7,9.1-10.1c3.8-2.4,8.1-3.6,12.8-3.6c3.5,0,6.7,0.7,9.7,2.1c3,1.4,5.4,3.2,7.2,5.2V304
			c0-1.8,0.6-3.2,1.7-4.4c1.2-1.2,2.6-1.8,4.4-1.8C142.8,297.8,144.3,298.4,145.5,299.6z M131.1,338.4c2.9-3.2,4.3-7.3,4.3-12.2
			c0-4.9-1.4-9-4.3-12.2c-2.9-3.3-6.6-4.9-11.2-4.9c-4.6,0-8.3,1.6-11.1,4.9c-2.9,3.3-4.3,7.3-4.3,12.2c0,4.9,1.4,9,4.3,12.2
			c2.9,3.2,6.6,4.8,11.1,4.8C124.5,343.2,128.2,341.6,131.1,338.4z"/>
		<path class="st9" d="M205.2,304c2.6,4.1,3.9,9.8,3.9,17.1v26.1c0,1.8-0.6,3.2-1.7,4.4c-1.2,1.2-2.6,1.8-4.4,1.8
			c-1.8,0-3.2-0.6-4.4-1.8c-1.2-1.2-1.7-2.7-1.7-4.4v-26.1c0-3.7-0.7-6.7-2.2-8.8c-1.5-2.1-4-3.2-7.7-3.2c-3.8,0-6.8,1.1-8.9,3.4
			c-2.1,2.3-3.2,5.2-3.2,8.6v26.1c0,1.8-0.6,3.2-1.7,4.4c-1.2,1.2-2.6,1.8-4.4,1.8c-1.8,0-3.2-0.6-4.4-1.8c-1.2-1.2-1.7-2.7-1.7-4.4
			v-63c0-1.8,0.6-3.2,1.7-4.4c1.2-1.2,2.6-1.8,4.4-1.8c1.8,0,3.2,0.6,4.4,1.8c1.2,1.2,1.7,2.7,1.7,4.4v22.5c1.8-2.4,4.2-4.5,7-6.3
			c2.8-1.7,6-2.6,9.4-2.6C198,297.8,202.6,299.9,205.2,304z"/>
		<path class="st9" d="M253.4,343.3c0.8,0.9,1.2,2.1,1.2,3.6c0,1.8-1,3.4-3,4.6c-2,1.3-4.3,1.9-6.8,1.9c-4.2,0-7.8-0.9-10.7-2.7
			c-2.9-1.8-4.3-5.6-4.3-11.5v-28.2h-4.7c-1.6,0-3-0.5-4.1-1.6c-1.1-1.1-1.6-2.4-1.6-4.1c0-1.6,0.5-2.9,1.6-3.9
			c1.1-1.1,2.4-1.6,4.1-1.6h4.7v-6.5c0-1.8,0.6-3.2,1.8-4.4c1.2-1.2,2.7-1.8,4.4-1.8c1.7,0,3.1,0.6,4.3,1.8c1.2,1.2,1.7,2.7,1.7,4.4
			v6.5h7.2c1.6,0,3,0.5,4.1,1.6c1.1,1.1,1.6,2.4,1.6,4.1c0,1.6-0.5,2.9-1.6,3.9c-1.1,1.1-2.4,1.6-4.1,1.6H242v27.6
			c0,1.4,0.4,2.5,1.1,3.1c0.7,0.6,1.8,1,3.1,1c0.5,0,1.3-0.1,2.2-0.4c0.8-0.3,1.6-0.5,2.3-0.5C251.8,341.9,252.6,342.3,253.4,343.3z
			"/>
		<path class="st9" d="M266.3,341.9c0-1.8,0.9-3.3,2.7-4.5c1-0.6,1.9-0.9,3-0.9c1.4,0,2.8,0.6,4.1,1.9c2,2.1,4.2,3.7,6.4,4.7
			c2.2,1,4.9,1.5,8,1.5c5.3-0.2,8-2.2,8-6c0-2-0.9-3.5-2.7-4.5c-1.8-1-4.6-2-8.4-3.1c-3.9-1.1-7.2-2.2-9.6-3.3
			c-2.5-1.1-4.6-2.7-6.4-4.9c-1.8-2.2-2.7-5.2-2.7-8.9c0-3.3,0.9-6.1,2.8-8.5c1.9-2.4,4.3-4.3,7.3-5.6c3-1.3,6.2-2,9.6-2
			c3.5,0,6.9,0.6,10.4,1.9c3.5,1.3,6.2,3.2,8.2,5.7c0.9,1.1,1.3,2.3,1.3,3.7c0,1.6-0.6,2.9-1.9,3.9c-1,0.7-2,1.1-3.3,1.1
			c-1.5,0-2.7-0.5-3.7-1.4c-1.2-1.5-2.8-2.7-4.7-3.6c-1.9-0.9-4.1-1.3-6.6-1.3c-5.2,0-7.8,1.9-7.8,5.6c0,1.5,0.5,2.7,1.4,3.6
			c1,0.9,2.2,1.6,3.6,2.1c1.5,0.5,3.5,1.1,6.2,1.9c3.7,1,6.7,2.1,9.2,3.2c2.4,1.1,4.5,2.8,6.2,5c1.7,2.2,2.5,5.2,2.5,8.9
			c0,3.3-1,6.2-3,8.7c-2,2.5-4.5,4.4-7.6,5.7c-3.1,1.3-6.3,1.9-9.5,1.9c-4.5,0-8.7-0.7-12.5-2.2c-3.9-1.5-7-3.9-9.5-7.2
			C266.6,344.1,266.3,343.1,266.3,341.9z"/>
	</g>
</g>
<rect x="364.4" y="-215" class="st9" width="90" height="164"/>
<rect x="473.1" y="-263" class="st9" width="90" height="212"/>
<rect x="582.4" y="-169" class="st9" width="90" height="118"/>
<path class="st9" d="M430.6-224.8h-43.5c-3.7,0-6.8-3-6.8-6.8V-256c0-3.7,3-6.8,6.8-6.8h43.5c3.7,0,6.8,3,6.8,6.8v24.5
	C437.4-227.8,434.4-224.8,430.6-224.8z"/>
<circle class="st7" cx="417.9" cy="-243.8" r="9.5"/>
<rect x="395.4" y="-253" class="st7" width="5" height="19"/>
<path class="st9" d="M404.3-259h-12.8c-1.2,0-2.1-0.9-2.1-2.1v-3.8c0-1.2,0.9-2.1,2.1-2.1h12.8c1.2,0,2.1,0.9,2.1,2.1v3.8
	C406.4-259.9,405.5-259,404.3-259z"/>
<circle class="st9" cx="504.4" cy="-310" r="9"/>
<circle class="st9" cx="532.4" cy="-310" r="9"/>
<path class="st9" d="M541.4-296c0,12.7-10.3,23-23,23c-12.7,0-23-10.3-23-23"/>
<ellipse class="st9" cx="627.9" cy="-247" rx="13.5" ry="19"/>
<path class="st9" d="M628.4-179h-1c-1.7,0-3-1.3-3-3v-54c0-1.7,1.3-3,3-3h1c1.7,0,3,1.3,3,3v54C631.4-180.3,630-179,628.4-179z"/>
</svg>
